# xmcd
#
# Track frame offsets:
#	150
#	9748
#	20270
#	30959
#	41280
#	54226
#	64523
#	74429
#	88154
#	95984
#	108213
#	119520
#
# Disc length: 1722 seconds
#
# Revision: 1
# Processed by: cddbd v1.5.1PL0 Copyright (c) Steve Scherf et al.
# Submitted via: MusicWizard 7.1.1b
#
DISCID=9406b80c
DTITLE=Dorsey Burnette - Tall Oak Tree
DYEAR=1960
DGENRE=Country
TTITLE0=Big Rock Candy Mountains
TTITLE1=Hey Little One
TTITLE2=Hard Working Man
TTITLE3=Lucky Old Sun
TTITLE4=Suddenly There's A Villey
TTITLE5=Lazy Bones
TTITLE6=Red Roses
TTITLE7=Noah's Ark
TTITLE8=Swing Low
TTITLE9=Wayward Wind
TTITLE10=I Got The Sun In The Morning
TTITLE11=Tall Oak Tree
EXTD=(c)1960 ERA Records Ltd., 6425 Hollywood Blvd. Hollywood 28, CA\nKatalog: ERA EL-102\n
EXTT0=
EXTT1=
EXTT2=
EXTT3=
EXTT4=
EXTT5=
EXTT6=
EXTT7=
EXTT8=
EXTT9=
EXTT10=
EXTT11=
PLAYORDER=
